{"title":"Big Bang, The (2011)(DD5.1)(AC3)(DivX)(Nl subs extern) TBS","uid":6249378,"size":1568995535,"categoryP":"video","categoryS":"movies","magnet":"?xt=urn:btih:0000e85ae4f57c7a304bbb03e294355cf88d5b2c&amp;dn=Big+Bang%2C+The+%282011%29%28DD5.1%29%28AC3%29%28DivX%29%28Nl+subs+extern%29+TBS&amp;tr=udp%3A%2F%2Ftracker.openbittorrent.com%3A80&amp;tr=udp%3A%2F%2Fopen.demonii.com%3A1337&amp;tr=udp%3A%2F%2Ftracker.coppersurfer.tk%3A6969&amp;tr=udp%3A%2F%2Fexodus.desync.com%3A6969","seeders":0,"leechers":1,"uploader":"Vlinder.","files":-1,"time":1300354090,"description":"Big Bang, The (2011)(DD5.1)(AC3)(DivX)(Nl subs extern) TBS\n\nVerenigde Staten\nActie / Thriller\n\ngeregisseerd door Tony Krantz\nmet Antonio Banderas, Sienna Guillory en Sam Elliott\n\nNed Cruz is een privÃƒÂ©-detective die op zoek is naar een vermiste stripper, maar wanneer Ned er achter komt dat iedereen die hij ondervraagd heeft dood gevonden is, wordt de zaak erg gecompliceerd. Zijn zoektocht brengt hem verder naar de woestijn van New Mexico waar hij een paar vreemde figuren ontmoet, zoals een geflipte Russische boxer, een paar ruziÃƒÂ«nde LAPD-agenten en een oude excentrieke miljardair, die onder andere op zoek is naar zijn mooie en veel jongere vrouw... \n\n\n\nDirector: Tony Krantz\nWriter: Erik Jendresen\nStars:Antonio Banderas, Sienna Guillory and Thomas Kretschmann  \n \nStoryline\n\nA private detective is hired to find a missing stripper but the job turns complicated when everyone he questions ends up dead. From the mean streets of Los Angeles to the desolate desert of New Mexico, Cruz must contend with a brutal Russian Boxer, three brash LAPD detectives, an aged billionaire looking for the Big Bang, and the billionaire's stunningly gorgeous wife. The solution to the mystery will cost ten lives, net $30 million and just might explain - well - everything\n \n  &lt;a href=&quot;\nhttp://www.moviemeter.nl/film/61304&quot; rel=&quot;nofollow&quot; target=&quot;_NEW&quot;&gt;\nhttp://www.moviemeter.nl/film/61304&lt;/a&gt; &lt;a href=&quot;\nhttp://www.imdb.com/title/tt1307873&quot; rel=&quot;nofollow&quot; target=&quot;_NEW&quot;&gt;\nhttp://www.imdb.com/title/tt1307873&lt;/a&gt;\n\nGeneral\n\nFormat                           : AVI\nFormat/Info                      : Audio Video Interleave\nFile size                        : 1.46 GiB\nDuration                         : 1h 36mn\nOverall bit rate                 : 2 157 Kbps\nWriting application              : Nandub v1.0rc2\nWriting library                  : Nandub build 1853/release\n\nVideo\nID                               : 0\nFormat                           : MPEG-4 Visual\nFormat profile                   : Advanced Simple@L5\nFormat settings, BVOP            : Yes\nFormat settings, QPel            : Yes\nFormat settings, GMC             : No warppoints\nFormat settings, Matrix          : Default (H.263)\nMuxing mode                      : Packed bitstream\nCodec ID                         : XVID\nCodec ID/Hint                    : XviD\nDuration                         : 1h 36mn\nBit rate                         : 1 699 Kbps\nWidth                            : 720 pixels\nHeight                           : 304 pixels\nDisplay aspect ratio             : 2.35:1\nFrame rate                       : 25.000 fps\nColor space                      : YUV\nChroma subsampling               : 4:2:0\nBit depth                        : 8 bits\nScan type                        : Progressive\nBits/(Pixel*Frame)               : 0.311\nStream size                      : 1.15 GiB (79%)\nWriting library                  : XviD 1.2.1 (UTC 2008-12-04)\n\nAudio\nID                               : 1\nFormat                           : AC-3\nFormat/Info                      : Audio Coding 3\nMode extension                   : CM (complete main)\nCodec ID                         : 2000\nDuration                         : 1h 36mn\nBit rate mode                    : Constant\nBit rate                         : 448 Kbps\nChannel(s)                       : 6 channels\nChannel positions                : Front: L C R, Side: L R, LFE\nSampling rate                    : 48.0 KHz\nBit depth                        : 16 bits\nStream size                      : 311 MiB (21%)\nAlignment                        : Split accross interleaves\nInterleave, duration             : 40 ms (1.00 video frame)\nInterleave, preload duration     : 500 ms\n\n","torrent":{"xt":"urn:btih:0000e85ae4f57c7a304bbb03e294355cf88d5b2c","amp;dn":"Big+Bang%2C+The+%282011%29%28DD5.1%29%28AC3%29%28DivX%29%28Nl+subs+extern%29+TBS","amp;tr":["udp%3A%2F%2Ftracker.openbittorrent.com%3A80","udp%3A%2F%2Fopen.demonii.com%3A1337","udp%3A%2F%2Ftracker.coppersurfer.tk%3A6969","udp%3A%2F%2Fexodus.desync.com%3A6969"],"infoHash":"0000e85ae4f57c7a304bbb03e294355cf88d5b2c","infoHashBuffer":{"type":"Buffer","data":[0,0,232,90,228,245,124,122,48,75,187,3,226,148,53,92,248,141,91,44]},"announce":[],"urlList":[]}}